<svg xmlns="http://www.w3.org/2000/svg" xmlns:xlink="http://www.w3.org/1999/xlink" width="500" zoomAndPan="magnify" viewBox="0 0 375 374.999991" height="500" preserveAspectRatio="xMidYMid meet" version="1.0"><defs><clipPath id="bbab5ded52"><path d="M 43 15 L 351.984375 15 L 351.984375 355 L 43 355 Z M 43 15 " clip-rule="nonzero"/></clipPath></defs><g clip-path="url(#bbab5ded52)"><path fill="#24518c" d="M 351.964844 280.652344 C 309.972656 344.617188 221.628906 375 142.8125 339.03125 C 61.207031 301.769531 22.753906 208.71875 54.46875 124.863281 C 86.390625 40.464844 174.597656 0 254.296875 20.367188 C 222.105469 21.183594 193.042969 30.789062 167.453125 50.136719 C 141.792969 69.550781 124.300781 94.6875 114.773438 125.476562 C 96.871094 183.582031 117.5625 247.820312 166.292969 285.21875 C 184.332031 299.046875 204.476562 308.3125 226.734375 312.804688 C 248.851562 317.234375 270.90625 316.757812 292.753906 311.101562 C 314.804688 305.449219 334.40625 295.09375 351.964844 280.652344 Z M 351.964844 280.652344 " fill-opacity="1" fill-rule="nonzero"/></g><path fill="#24518c" d="M 258.175781 87.804688 C 263.960938 105.585938 269.542969 122.480469 274.921875 139.507812 C 275.875 142.507812 277.304688 143.390625 280.296875 143.390625 C 296.699219 143.257812 313.035156 143.324219 329.4375 143.324219 C 330.730469 143.324219 331.957031 143.460938 334.203125 143.527344 C 322.222656 152.246094 310.925781 160.492188 299.695312 168.664062 C 296.496094 170.980469 293.296875 173.433594 289.960938 175.679688 C 287.988281 176.976562 287.582031 178.269531 288.328125 180.652344 C 293.707031 196.796875 298.878906 213.011719 304.121094 229.222656 C 304.460938 230.246094 304.730469 231.199219 305.34375 233.105469 C 298.199219 227.929688 291.730469 223.230469 285.199219 218.527344 C 277.097656 212.671875 269 206.878906 261.035156 200.816406 C 258.925781 199.25 257.496094 199.25 255.457031 200.75 C 242.386719 210.355469 229.183594 219.890625 216.046875 229.429688 C 214.753906 230.382812 213.460938 231.199219 211.417969 231.675781 C 212.710938 227.589844 214.003906 223.5 215.296875 219.414062 C 219.449219 206.609375 223.464844 193.800781 227.753906 181.128906 C 228.707031 178.335938 228.09375 176.839844 225.78125 175.203125 C 211.417969 164.917969 197.125 154.429688 182.152344 143.597656 C 184.195312 143.460938 185.417969 143.324219 186.644531 143.324219 C 203.046875 143.324219 219.382812 143.1875 235.785156 143.390625 C 239.050781 143.390625 240.414062 142.371094 241.433594 139.304688 C 246.539062 123.09375 251.847656 106.878906 257.15625 90.734375 C 257.359375 89.917969 257.632812 89.167969 258.175781 87.804688 Z M 258.175781 87.804688 " fill-opacity="1" fill-rule="nonzero"/></svg>